<?xml version="1.0" standalone="no"?>
<!DOCTYPE svg PUBLIC "-//W3C//DTD SVG 1.1//EN" "http://www.w3.org/Graphics/SVG/1.1/DTD/svg11.dtd">
<svg xmlns="http://www.w3.org/2000/svg">
<metadata>Generated by Fontastic.me</metadata>
<defs>
<font id="yanai-font" horiz-adv-x="512">
<font-face font-family="yanai-font" units-per-em="512" ascent="480" descent="-32"/>
<missing-glyph horiz-adv-x="512" />

<glyph glyph-name="oc-angle-up" unicode="&#69;" d="M399 174c0-3-1-5-3-7l-15-14c-1-2-4-3-6-3-3 0-5 1-7 3l-112 112-112-112c-2-2-4-3-7-3-2 0-5 1-6 3l-15 14c-2 2-3 4-3 7 0 2 1 4 3 6l133 133c2 2 5 3 7 3 2 0 5-1 7-3l133-133c2-2 3-4 3-6z"/>
<glyph glyph-name="oc-twitter" unicode="&#70;" d="M481 395c-13-18-28-34-46-47 0-3 0-7 0-12 0-25-3-50-11-74-7-25-18-49-33-71-14-23-32-43-52-61-21-17-45-31-74-41-29-11-60-16-92-16-52 0-99 14-142 42 7-1 14-2 22-2 43 0 81 14 115 40-20 0-38 6-54 18-16 12-27 27-33 46 7-1 13-2 18-2 8 0 16 1 24 4-21 4-39 15-53 31-14 17-21 37-21 59l0 1c13-7 27-11 42-11-13 8-23 19-30 32-8 14-11 29-11 44 0 17 4 33 12 47 23-28 51-51 84-68 33-17 69-27 107-29-2 8-3 15-3 22 0 25 9 47 27 65 18 18 40 27 66 27 26 0 49-10 67-29 21 4 40 11 59 22-7-22-21-39-41-51 18 2 35 7 53 14z"/>
<glyph glyph-name="oc-linkedin" unicode="&#71;" d="M136 333l0-283-94 0 0 283z m6 88c0-14-4-26-14-35-10-9-23-14-39-14l0 0c-16 0-29 5-38 14-10 9-14 21-14 35 0 14 4 26 14 35 10 9 23 14 39 14 16 0 28-5 38-14 9-9 14-21 14-35z m333-208l0-163-94 0 0 152c0 20-3 35-11 47-8 11-20 17-36 17-12 0-22-4-30-10-9-7-15-15-19-25-2-5-3-13-3-23l0-158-94 0c1 76 1 138 1 185 0 47 0 76 0 85l-1 13 94 0 0-41 0 0c4 6 7 12 11 16 4 5 10 10 17 15 6 5 15 10 24 13 10 3 21 4 33 4 33 0 59-11 79-32 20-22 29-54 29-95z"/>
<glyph glyph-name="oc-angle-right" unicode="&#72;" d="M335 238c0-3-1-5-3-7l-133-133c-2-2-5-3-7-3-2 0-5 1-7 3l-14 14c-2 2-3 4-3 7 0 2 1 5 3 6l112 113-112 112c-2 2-3 4-3 7 0 2 1 4 3 6l14 14c2 2 5 3 7 3 2 0 5-1 7-3l133-133c2-2 3-4 3-6z"/>
<glyph glyph-name="oc-angle-left" unicode="&#73;" d="M344 357c0-3-1-5-3-7l-112-112 112-113c2-1 3-4 3-6 0-3-1-5-3-7l-14-14c-2-2-5-3-7-3-2 0-5 1-7 3l-133 133c-2 2-3 4-3 7 0 2 1 4 3 6l133 133c2 2 5 3 7 3 2 0 5-1 7-3l14-14c2-2 3-4 3-6z"/>
<glyph glyph-name="oc-angle-down" unicode="&#74;" d="M399 302c0-3-1-5-3-7l-133-133c-2-2-5-3-7-3-2 0-5 1-7 3l-133 133c-2 2-3 4-3 7 0 2 1 4 3 6l15 15c1 1 4 2 6 2 3 0 5-1 7-2l112-113 112 113c2 1 4 2 7 2 2 0 5-1 6-2l15-15c2-2 3-4 3-6z"/>
<glyph glyph-name="oc-quote" unicode="&#75;" d="M136 425c50 0 81-25 94-75 13-48 6-99-21-154-27-58-65-93-114-105-11-3-22-4-34-4 0 0 0 36 0 36 38 0 69 18 93 55 19 30 23 54 13 75-5 12-16 18-31 18-21 0-38 8-53 23-15 15-22 33-22 54 0 21 7 39 22 54 15 15 32 23 53 23m215 0c50 0 81-25 94-75 13-48 6-99-21-154-27-58-65-93-114-105-11-3-22-4-34-4 0 0 0 36 0 36 38 0 69 18 93 55 19 30 23 54 13 75-5 12-16 18-31 18-21 0-38 8-53 23-15 15-22 33-22 54 0 21 7 39 22 54 15 15 32 23 53 23"/>
<glyph glyph-name="oc-facebook" unicode="&#76;" d="M384 509l0-76-45 0c-17 0-28-3-33-10-6-7-9-17-9-31l0-54 84 0-11-85-73 0 0-216-87 0 0 216-73 0 0 85 73 0 0 62c0 36 10 63 29 83 20 19 47 29 80 29 28 0 49-1 65-3z"/>
<glyph glyph-name="oc-shopping-cart" unicode="&#78;" d="M201 73c0-10-3-18-11-26-7-7-16-10-25-10-10 0-19 3-26 10-7 8-11 16-11 26 0 10 4 19 11 26 7 7 16 11 26 11 9 0 18-4 25-11 8-7 11-16 11-26z m256 0c0-10-3-18-11-26-7-7-16-10-25-10-10 0-19 3-26 10-7 8-11 16-11 26 0 10 4 19 11 26 7 7 16 11 26 11 9 0 18-4 25-11 8-7 11-16 11-26z m37 311l0-146c0-5-2-9-5-12-3-4-7-6-12-7l-298-34c3-12 4-19 4-20 0-3-2-10-7-19l263 0c5 0 9-2 13-5 3-4 5-8 5-13 0-5-2-9-5-13-4-3-8-5-13-5l-293 0c-5 0-9 2-13 5-3 4-5 8-5 13 0 2 1 5 2 9 2 4 3 7 5 10 1 3 3 7 6 12 3 4 4 7 4 8l-50 235-58 0c-5 0-10 2-13 6-4 3-6 8-6 13 0 5 2 9 6 12 3 4 8 6 13 6l73 0c3 0 5-1 8-2 2-1 4-3 5-4 2-2 3-4 4-7 1-3 2-6 2-8 1-2 1-5 2-8 1-4 1-6 1-8l343 0c5 0 10-2 13-5 4-4 6-8 6-13z"/>
<glyph glyph-name="oc-bars" unicode="&#79;" d="M475 128l0-37c0-5-1-9-5-12-4-4-8-6-13-6l-402 0c-5 0-9 2-13 6-4 3-5 7-5 12l0 37c0 5 1 9 5 13 4 3 8 5 13 5l402 0c5 0 9-2 13-5 4-4 5-8 5-13z m0 146l0-36c0-5-1-10-5-13-4-4-8-6-13-6l-402 0c-5 0-9 2-13 6-4 3-5 8-5 13l0 36c0 5 1 10 5 13 4 4 8 6 13 6l402 0c5 0 9-2 13-6 4-3 5-8 5-13z m0 147l0-37c0-5-1-9-5-13-4-3-8-5-13-5l-402 0c-5 0-9 2-13 5-4 4-5 8-5 13l0 37c0 5 1 9 5 12 4 4 8 6 13 6l402 0c5 0 9-2 13-6 4-3 5-7 5-12z"/>
<glyph glyph-name="oc-mail" unicode="&#77;" d="M475 82l0 220c-6-7-12-13-19-19-51-39-92-72-122-97-10-8-18-14-24-19-6-4-14-9-24-14-11-4-21-7-30-7l0 0c-9 0-19 3-30 7-10 5-18 10-24 14-6 5-14 11-24 19-30 25-71 58-122 97-7 6-13 12-19 19l0-220c0-2 0-4 2-6 2-2 4-3 7-3l420 0c3 0 5 1 7 3 2 2 2 4 2 6z m0 301l0 7 0 3-1 4-1 2-3 3-4 0-420 0c-3 0-5-1-7-2-2-2-2-4-2-7 0-32 14-59 42-81 36-29 75-59 114-91 1-1 5-3 10-8 6-5 10-8 13-11 4-2 8-5 13-9 5-3 10-6 14-8 5-1 9-2 13-2l0 0c4 0 8 1 13 2 4 2 9 5 14 8 5 4 9 7 13 9 3 3 7 6 13 11 5 5 9 7 10 8 39 32 78 62 114 91 11 8 20 19 29 33 9 14 13 26 13 38z m37 10l0-311c0-12-4-23-13-32-9-9-20-13-33-13l-420 0c-13 0-24 4-33 13-9 9-13 20-13 32l0 311c0 13 4 23 13 32 9 9 20 14 33 14l420 0c13 0 24-5 33-14 9-9 13-19 13-32z"/>
<glyph glyph-name="oc-github" unicode="&#81;" d="M475 256c0-48-14-91-41-129-28-38-64-65-109-79-5-1-8-1-11 2-2 2-3 5-3 8l0 61c0 18-5 32-15 40 11 1 20 3 29 5 9 3 18 6 27 11 9 6 17 12 23 19 6 8 11 18 15 30 4 13 6 27 6 43 0 23-8 43-23 59 7 18 7 37-2 59-5 1-13 0-23-4-10-3-19-8-26-12l-11-7c-18 5-36 7-55 7-19 0-37-2-55-7-3 2-7 5-12 8-5 3-13 6-24 11-11 4-19 5-24 4-9-22-9-41-2-59-15-16-23-36-23-59 0-16 2-30 6-42 4-13 9-23 15-30 6-8 14-14 23-20 9-5 18-8 27-11 8-2 18-4 29-5-8-7-12-17-14-29-4-2-8-4-13-5-4-1-10-1-16-1-6 0-13 2-19 6-6 4-11 10-16 18-3 6-8 11-14 15-5 4-10 6-14 7l-5 1c-4 0-7-1-9-2-1-1-2-2-1-3 0-1 1-3 2-4 2-1 3-2 4-3l2-2c4-2 8-5 13-11 4-5 7-10 9-14l2-7c3-7 7-13 13-17 6-5 12-8 19-9 7-1 14-2 20-2 6 0 12 0 16 1l6 1c0-7 0-16 1-25 0-10 0-15 0-16 0-3-2-6-4-8-2-3-6-3-11-2-45 14-81 41-109 79-27 38-41 81-41 129 0 40 9 77 29 110 20 34 46 60 80 80 33 20 70 29 110 29 40 0 77-9 110-29 34-20 60-46 80-80 20-33 29-70 29-110z"/>
<glyph glyph-name="oc-note-logo" unicode="&#97;" d="M204 334l0 36c0 6 0 9 1 12 3 9 12 16 23 16 10 0 19-7 22-16 1-3 1-6 1-12l0-55c0-3 0-7-1-10-1-8-9-15-17-17-3-1-7-1-10-1l-55 0c-6 0-8 0-12 1-9 3-16 12-16 23 0 10 7 19 16 22 4 1 6 1 12 1l36 0z m196-248l-295 0 0 259c0 3 1 6 4 8l76 76c2 3 5 4 8 4l207 0 0-347z m34 406c-2 0-4 0-8 0l-240 0c-3 0-6 0-7 0-11-1-21-6-29-14l-90-90c-8-8-13-17-14-28 0-2 0-5 0-8l0-293c0-3 0-6 0-7 1-12 13-24 25-25 2 0 4 0 8 0l347 0c4 0 6 0 8 0 12 1 23 13 25 25 0 1 0 3 0 7l0 400c0 4 0 6 0 8-2 12-13 23-25 25z"/>
<glyph glyph-name="oc-add-buddy" unicode="&#98;" d="M256 497c-70 0-128-60-128-133 0-46 22-97 54-131-52-21-121-57-135-104-7-25-14-44-19-59-8-22-12-36-13-47-1-12 8-22 19-23 1 0 1 0 2 0 11 0 20 8 21 20 1 6 5 19 11 36 6 16 12 35 20 60 8 26 61 61 135 87 1 1 1 1 2 1 10-3 20-6 31-6 71 0 128 91 128 166 0 73-57 133-128 133z m-59-277c-1 0 0 0 0 1 0-1 0-1 0-1z m59 21c-44 0-85 69-85 123 0 49 38 90 85 90 47 0 85-41 85-90 0-54-41-123-85-123z m139-49c41 0 74-33 74-75 0-41-33-74-74-74-42 0-75 33-75 74 0 42 33 75 75 75m0 43c-65 0-118-53-118-118 0-64 53-117 118-117 64 0 117 53 117 117 0 65-53 118-117 118z m0-171c-6 0-11 5-11 11l0 85c0 6 5 11 11 11 6 0 10-5 10-11l0-85c0-6-4-11-10-11z m-54 53c0 6 5 11 11 11l85 0c6 0 11-5 11-11 0-6-5-10-11-10l-85 0c-6 0-11 4-11 10z"/>
<glyph glyph-name="oc-add-doc" unicode="&#99;" d="M395 64c-6 0-11 5-11 11l0 85c0 6 5 11 11 11 6 0 10-5 10-11l0-85c0-6-4-11-10-11z m-54 53c0 6 5 11 11 11l85 0c6 0 11-5 11-11 0-6-5-10-11-10l-85 0c-6 0-11 4-11 10z m16 246l-202 0c-6 0-11 4-11 10 0 6 5 11 11 11l202 0c6 0 11-5 11-11 0-6-5-10-11-10z m0-64l-202 0c-6 0-11 4-11 10 0 6 5 11 11 11l202 0c6 0 11-5 11-11 0-6-5-10-11-10z m-43-64l-159 0c-6 0-11 4-11 10 0 6 5 11 11 11l159 0c6 0 11-5 11-11 0-6-5-10-11-10z m-69-64l-90 0c-6 0-11 4-11 10 0 6 5 11 11 11l90 0c6 0 11-5 11-11 0-6-5-10-11-10z m203 51l0 203c0 41-38 66-79 66l-226 0c-41 0-79-25-79-66l0-338c0-41 38-66 79-66l184 0c19-13 43-21 68-21 64 0 117 53 117 117 0 46-26 85-64 105z m-341-135l0 338c0 17 18 23 36 23l226 0c18 0 36-6 36-23l0-191c-3 0-7 1-10 1-65 0-118-53-118-118 0-19 5-37 13-53l-147 0c-18 0-36 6-36 23z m288-44c-42 0-75 33-75 74 0 42 33 75 75 75 41 0 74-33 74-75 0-41-33-74-74-74z"/>
<glyph glyph-name="oc-briefcase" unicode="&#100;" d="M425 384l-41 0 0 38c0 25-22 47-45 47l-166 0c-23 0-45-22-45-47l0-38-41 0c-41 0-66-37-66-76l0-187c0-40 25-78 66-78l338 0c41 0 66 38 66 78l0 187c0 39-25 76-66 76z m-254 38c0 1 2 2 1 2l166 0c1 0 3-1 3-2l0-38-170 0z m-84-81l338 0c17 0 23-17 23-33l0-31-134 0c-7 13-21 22-37 22l-42 0c-16 0-30-9-37-22l-134 0 0 31c0 16 6 33 23 33z m212-85c0-12-10-21-22-21l-42 0c-12 0-22 9-22 21 0 12 10 21 22 21l42 0c12 0 22-9 22-21z m126-171l-338 0c-17 0-23 20-23 36l0 135 128 0c0-24 19-43 43-43l42 0c24 0 43 19 43 43l128 0 0-135c0-16-6-36-23-36z"/>
<glyph glyph-name="oc-buddy" unicode="&#101;" d="M485 70c-5 15-11 34-19 59-14 47-82 83-136 105 33 33 54 84 54 130 0 73-57 133-128 133-70 0-128-60-128-133 0-46 22-97 54-131-52-21-121-57-135-104-7-25-14-44-19-59-8-22-12-36-13-47-1-12 8-22 19-23 1 0 1 0 2 0 11 0 20 8 21 20 1 6 5 19 11 36 6 16 12 35 20 60 8 26 61 61 135 87 1 1 1 1 2 1 10-3 20-6 31-6 11 0 22 3 32 7 1-1 2-1 3-2 74-26 126-61 134-87 8-25 15-44 20-60 6-17 11-30 11-36 1-12 10-20 21-20 1 0 1 0 2 0 12 1 21 11 20 23-1 11-6 25-14 47z m-288 150c-1 0 0 0 0 1 0-1 0-1 0-1z m-26 144c0 49 38 90 85 90 47 0 85-41 85-90 0-54-41-123-85-123-44 0-85 69-85 123z m144-144c0 0 0 0 0 0l2 0z"/>
<glyph glyph-name="oc-calendar" unicode="&#102;" d="M277 129l-32 0 0 86 0 14 1 16c-5-5-9-9-11-11l-17-13-15 19 48 38 26 0z m149 319l-42 0 0 22c0 12-9 21-20 21l-2 0c-12 0-21-9-21-21l0-22-170 0 0 22c0 12-9 21-21 21l-2 0c-11 0-20-9-20-21l0-22-40 0c-41 0-67-41-67-85l0-260c0-43 26-82 67-82l338 0c41 0 65 39 65 82l0 260c0 44-24 85-65 85z m-338-43l40 0 0-1c0-11 9-20 20-20l2 0c12 0 21 9 21 20l0 1 170 0 0-1c0-11 9-20 21-20l2 0c11 0 20 9 20 20l0 1 42 0c17 0 22-22 22-42l0-22-384 0 0 22c0 20 7 42 24 42z m338-341l-338 0c-17 0-24 19-24 39l0 217 384 0 0-217c0-20-5-39-22-39z"/>
<glyph glyph-name="oc-check-doc" unicode="&#103;" d="M357 363l-202 0c-6 0-11 4-11 10 0 6 5 11 11 11l202 0c6 0 11-5 11-11 0-6-5-10-11-10z m0-64l-202 0c-6 0-11 4-11 10 0 6 5 11 11 11l202 0c6 0 11-5 11-11 0-6-5-10-11-10z m-43-64l-159 0c-6 0-11 4-11 10 0 6 5 11 11 11l159 0c6 0 11-5 11-11 0-6-5-10-11-10z m-69-64l-90 0c-6 0-11 4-11 10 0 6 5 11 11 11l90 0c6 0 11-5 11-11 0-6-5-10-11-10z m203 51l0 203c0 41-38 66-79 66l-226 0c-41 0-79-25-79-66l0-338c0-41 38-66 79-66l184 0c19-13 43-21 68-21 64 0 117 53 117 117 0 46-26 85-64 105z m-341-135l0 338c0 17 18 23 36 23l226 0c18 0 36-6 36-23l0-191c-3 0-7 1-10 1-65 0-118-53-118-118 0-19 5-37 13-53l-147 0c-18 0-36 6-36 23z m288-44c-42 0-75 33-75 74 0 42 33 75 75 75 41 0 74-33 74-75 0-41-33-74-74-74z m48 111c-4 3-13 1-19-6l-42-46-18 17c-4 4-11 3-14-1-4-5-5-11-1-15l34-31 1 1 0 0 56 61c6 7 8 16 3 20z"/>
<glyph glyph-name="oc-clock" unicode="&#104;" d="M256 18c-131 0-238 107-238 238 0 131 107 238 238 238 131 0 238-107 238-238 0-131-107-238-238-238z m0 433c-108 0-195-87-195-195 0-108 87-195 195-195 108 0 195 87 195 195 0 108-87 195-195 195z m120-174l-99 0 0 99c0 12-10 21-22 21-12 0-21-9-21-21l0-142c0 0 9 0 21 0l121 0c12 0 21 9 21 21 0 12-9 22-21 22z"/>
<glyph glyph-name="oc-close" unicode="&#105;" d="M286 256l177 177c8 8 8 22 0 30-8 9-22 9-30 0l-177-177-177 177c-8 9-22 9-30 0-8-8-8-22 0-30l177-177-177-177c-8-8-8-22 0-30 4-4 10-6 15-6 5 0 11 2 15 6l177 177 177-177c4-4 10-6 15-6 5 0 11 2 15 6 8 8 8 22 0 30z"/>
<glyph glyph-name="oc-comment" unicode="&#106;" d="M115 21c-19 0-34 16-34 35 0 5 0 9 2 14 0 0 1 1 1 2l4 8c7 11 16 28 20 44-61 38-97 98-97 162 0 113 110 205 245 205 135 0 245-92 245-205 0-112-110-204-245-204-11 0-23 1-34 2-19-20-58-55-100-62-1 0-3-1-4-1-1 0-2 0-3 0z m141 427c-112 0-203-72-203-162 0-52 33-102 87-132 7-4 11-11 11-19 0-25-10-48-20-66 29 12 57 40 65 51 4 6 12 9 20 8 13-2 27-3 40-3 112 0 203 72 203 161 0 90-91 162-203 162z"/>
<glyph glyph-name="oc-course-clone" unicode="&#107;" d="M427 224l0 174c0 30-24 54-53 54l-25 0 0 7c0 29-23 53-53 53l-226 0c-29 0-53-24-53-53l0-338c0-29 24-53 53-53l24 0 0-7c0-29 24-53 53-53l189 0c13-5 27-8 42-8 65 0 117 53 117 117 0 48-28 88-68 107z m-357-113c-6 0-10 4-10 10l0 338c0 6 4 10 10 10l226 0c6 0 11-4 11-10l0-7-160 0c-29 0-53-24-53-54l0-287z m67-50l0 337c0 6 4 11 10 11l227 0c5 0 10-5 10-11l0-164c-2 0-4 1-6 1-65 0-118-53-118-118 0-25 8-48 21-67l-134 0c-6 0-10 5-10 11z m241-18c-41 0-75 33-75 74 0 42 34 75 75 75 41 0 74-33 74-75 0-41-33-74-74-74z m42 85l-32 0 0 32c0 6-4 11-10 11-6 0-11-5-11-11l0-32-32 0c-6 0-11-5-11-11 0-6 5-10 11-10l32 0 0-32c0-6 5-11 11-11 6 0 10 5 10 11l0 32 32 0c6 0 11 4 11 10 0 6-5 11-11 11z m-80 203l-159 0c-6 0-11 4-11 10 0 6 5 11 11 11l159 0c6 0 11-5 11-11 0-6-5-10-11-10z m0-64l-159 0c-6 0-11 4-11 10 0 6 5 11 11 11l159 0c6 0 11-5 11-11 0-6-5-10-11-10z m-64-64l-95 0c-6 0-11 4-11 10 0 6 5 11 11 11l95 0c6 0 11-5 11-11 0-6-5-10-11-10z"/>
<glyph glyph-name="oc-discussion" unicode="&#108;" d="M363 320l-214 0c-6 0-10 5-10 11 0 6 4 10 10 10l214 0c6 0 10-4 10-10 0-6-4-11-10-11z m0-56l-214 0c-6 0-10 5-10 10 0 6 4 11 10 11l214 0c6 0 10-5 10-11 0-5-4-10-10-10z m-78-57l-136 0c-6 0-10 5-10 11 0 6 4 11 10 11l136 0c6 0 11-5 11-11 0-6-5-11-11-11z m-170-186c-19 0-34 16-34 35 0 5 0 9 2 14 0 0 1 1 1 2l4 8c7 11 16 28 20 44-61 38-97 98-97 162 0 113 110 205 245 205 135 0 245-92 245-205 0-112-110-204-245-204-11 0-23 1-34 2-19-20-58-55-100-62-1 0-3-1-4-1-1 0-2 0-3 0z m141 427c-112 0-203-72-203-162 0-52 33-102 87-132 7-4 11-11 11-19 0-25-10-48-20-66 29 12 57 40 65 51 4 6 12 9 20 8 13-2 27-3 40-3 112 0 203 72 203 161 0 90-91 162-203 162z"/>
<glyph glyph-name="oc-delete-message" unicode="&#109;" d="M491 185l0 203c0 41-25 81-66 81l-338 0c-41 0-66-40-66-81l0-227c0-41 25-76 66-76l195 0c14-49 59-85 113-85 64 0 117 53 117 117 0 25-8 49-21 68z m-43 37c-16 8-34 13-53 13-9 0-17-1-26-3l-41 44 120 113z m-361 205l338 0c8 0 15-7 21-12l-186-170c-3-4-9-4-13-1l-181 172c6 4 13 11 21 11z m-23-266l0 228 121-113-121-124c0 0 0 5 0 9z m214-33l-191 0c-5 0-11 2-15 5l125 128 36-34c6-5 13-8 21-8 7 0 15 3 21 8l37 35 36-37c-39-17-66-54-70-97z m117-85c-42 0-75 33-75 74 0 42 33 75 75 75 41 0 74-33 74-75 0-41-33-74-74-74z m-54 74c0 6 5 11 11 11l85 0c6 0 11-5 11-11 0-6-5-10-11-10l-85 0c-6 0-11 4-11 10z"/>
<glyph glyph-name="oc-download" unicode="&#111;" d="M395 150l-44 0c-12 0-21 10-21 21 0 12 9 22 21 22l44 0c37 0 68 35 68 78 0 34-20 65-48 75-8 3-13 10-14 19-4 58-48 104-99 104-34 0-65-19-83-52-3-5-8-9-14-10-5-2-11-1-16 2-16 10-29 6-36 2-15-8-25-23-26-42 0-10-8-19-18-20-34-5-60-38-60-78 0-43 31-78 68-78l42 0c11 0 21-10 21-22 0-11-10-21-21-21l-42 0c-61 0-110 54-110 121 0 55 33 102 80 117 6 27 22 49 46 61 19 10 40 11 59 5 27 37 67 58 110 58 70 0 129-57 140-131 38-20 63-62 63-110 0-67-49-121-110-121z m-209-71l53-71c1-1 2-2 4-3 0-1 0-1 0-1 0 0 1 0 1 0 1-2 3-2 6-3 0 0 1-1 2-1 1 0 3 0 4 0 1 0 3 0 4 0 1 0 2 1 2 1 3 1 5 1 6 3 0 0 1 0 1 0 0 0 0 0 0 1 2 1 3 2 4 3l53 71c7 9 6 23-4 30-4 2-8 4-13 4-6 0-13-3-17-9l-14-18 0 212c0 12-9 22-21 22-12 0-21-10-21-22l0-215-16 21c-4 6-11 9-17 9-5 0-9-2-13-4-10-7-11-21-4-30z"/>
<glyph glyph-name="oc-happy" unicode="&#112;" d="M256 18c-131 0-238 107-238 238 0 131 107 238 238 238 131 0 238-107 238-238 0-131-107-238-238-238z m0 433c-108 0-195-87-195-195 0-108 87-195 195-195 108 0 195 87 195 195 0 108-87 195-195 195z m-48-142c0-18-14-32-32-32-18 0-32 14-32 32 0 18 14 32 32 32 18 0 32-14 32-32z m160 0c0-18-14-32-32-32-18 0-32 14-32 32 0 18 14 32 32 32 18 0 32-14 32-32z m-112-190c-51 0-91 37-93 39-9 9-17 17-17 17-8 9-7 22 2 30 9 8 22 7 30-2 0 0 6-7 14-14 0 0 30-27 64-27 34 0 65 27 65 27 7 7 12 13 12 13 8 9 21 11 30 3 9-7 11-21 3-30 0 0-7-8-16-17-2-2-42-39-94-39z"/>
<glyph glyph-name="oc-home" unicode="&#114;" d="M495 284l-224 201c-8 8-20 7-28 0l-226-206c-9-8-10-22-2-31 4-4 10-7 16-7 5 0 10 2 14 6l24 21 0-234c0-12 9-21 21-21l332 0c12 0 21 9 21 21l0 239 24-21c9-8 22-7 30 2 8 9 7 22-2 30z m-95-229l-289 0 0 252 146 134 143-129z"/>
<glyph glyph-name="oc-like" unicode="&#116;" d="M259 49c-8 0-16 3-23 8-47 39-82 68-101 85-26 22-46 45-63 68-25 36-39 71-43 107-7 71 42 137 109 144 48 6 88-9 118-44 14 17 33 30 55 38 33 12 68 11 100-4 31-15 54-41 65-74 12-36 10-73-7-114-12-30-31-59-57-87-33-35-95-89-129-118-7-6-16-9-24-9z m-102 371c-5 0-10 0-14-1-44-5-76-50-71-97 3-30 14-57 35-87 14-21 33-41 56-61 18-16 51-44 96-80 29 24 91 78 122 111 23 25 39 49 49 74 0 0 0 0 0 0 12 32 14 58 6 84-8 22-23 39-44 49-21 10-44 11-66 3-23-9-40-24-50-46-4-7-11-12-19-12-8 0-15 4-19 11-20 35-46 52-81 52z"/>
<glyph glyph-name="oc-iphone" unicode="&#115;" d="M337 499l-162 0c-36 0-65-32-65-74l0-338c0-42 29-74 65-74l162 0c36 0 65 32 65 74l0 338c0 42-29 74-65 74z m-126-45l90 0c6 0 11-4 11-10 0-6-5-11-11-11l-90 0c-6 0-11 5-11 11 0 6 5 10 11 10z m45-399c-8 0-15 7-15 15 0 8 7 15 15 15 8 0 15-7 15-15 0-8-7-15-15-15z m103 59l-206 0 0 286 206 0z"/>
<glyph glyph-name="oc-highlight" unicode="&#113;" d="M430 463l-38 26c-39 26-97 16-125-22l-135-189c-21-29-37-75-23-106 3-6 2-19-1-24-8-13-11-28-9-44l-22-33c-6-9-8-20-4-30 4-10 12-17 23-20l43-11c3-1 5-1 8-1 11 0 21 5 27 15l12 18c14 3 27 11 36 22 6 7 23 16 33 16 35 3 72 36 90 67l113 192c24 42 12 97-28 124z m-288-410l-22 6 17 25 18-12c0 0 0 0 0 0z m47 38c-3-4-8-6-13-7l-34 23c-2 7-1 13 2 18 6 9 9 22 9 34l66-46c-12-6-23-14-30-22z m232 270l-112-192c-16-26-42-45-56-46-3 0-6-1-9-1l-96 66c0 1 0 1 0 2-5 11 1 39 19 64l135 188c14 20 46 25 66 11l38-25c22-15 28-45 15-67z"/>
<glyph glyph-name="oc-message" unicode="&#110;" d="M425 469l-338 0c-41 0-66-40-66-81l0-227c0-41 25-76 66-76l338 0c41 0 66 35 66 76l0 227c0 41-25 81-66 81z m-97-193l120 113 0-228c0-5 1-14 1-14z m97 151c8 0 15-7 21-12l-186-170c-3-4-9-4-13-1l-181 172c6 4 13 11 21 11z m-361-275c0 0 0 5 0 9l0 228 121-113z m23-24c-5 0-11 2-15 5l125 128 36-34c6-5 13-8 21-8 7 0 15 3 21 8l37 35 126-130c-4-2-9-4-13-4z"/>
<glyph glyph-name="oc-message-pending" unicode="&#117;" d="M491 185l0 203c0 41-25 81-66 81l-338 0c-41 0-66-40-66-81l0-227c0-41 25-76 66-76l195 0c14-49 59-85 113-85 64 0 117 53 117 117 0 25-8 49-21 68z m-43 37c-16 8-34 13-53 13-9 0-17-1-26-3l-41 44 120 113z m-361 205l338 0c8 0 15-7 21-12l-186-170c-3-4-9-4-13-1l-181 172c6 4 13 11 21 11z m-23-266l0 228 121-113-121-124c0 0 0 5 0 9z m214-33l-191 0c-5 0-11 2-15 5l125 128 36-34c6-5 13-8 21-8 7 0 15 3 21 8l37 35 36-37c-39-17-66-54-70-97z m117-85c-42 0-75 33-75 74 0 42 33 75 75 75 41 0 74-33 74-75 0-41-33-74-74-74z m42 85l-32 0 0 32c0 6-4 11-10 11-6 0-11-5-11-11l0-53 53 0c6 0 11 4 11 10 0 6-5 11-11 11z"/>
<glyph glyph-name="oc-message-sent" unicode="&#118;" d="M491 185l0 203c0 41-25 81-66 81l-338 0c-41 0-66-40-66-81l0-227c0-41 25-76 66-76l195 0c14-49 59-85 113-85 64 0 117 53 117 117 0 25-8 49-21 68z m-43 37c-16 8-34 13-53 13-9 0-17-1-26-3l-41 44 120 113z m-361 205l338 0c8 0 15-7 21-12l-186-170c-3-4-9-4-13-1l-181 172c6 4 13 11 21 11z m-23-266l0 228 121-113-121-124c0 0 0 5 0 9z m214-33l-191 0c-5 0-11 2-15 5l125 128 36-34c6-5 13-8 21-8 7 0 15 3 21 8l37 35 36-37c-39-17-66-54-70-97z m117-85c-42 0-75 33-75 74 0 42 33 75 75 75 41 0 74-33 74-75 0-41-33-74-74-74z m48 111c-4 3-13 1-19-6l-42-46-18 17c-4 4-11 3-14-1-4-5-5-11-1-15l34-31 1 1 0 0 56 61c6 7 8 16 3 20z"/>
<glyph glyph-name="oc-new-message" unicode="&#119;" d="M437 128l-32 0 0 32c0 6-4 11-10 11-6 0-11-5-11-11l0-32-32 0c-6 0-11-5-11-11 0-6 5-10 11-10l32 0 0-32c0-6 5-11 11-11 6 0 10 5 10 11l0 32 32 0c6 0 11 4 11 10 0 6-5 11-11 11z m54 57l0 203c0 41-25 81-66 81l-338 0c-41 0-66-40-66-81l0-227c0-41 25-76 66-76l195 0c14-49 59-85 113-85 64 0 117 53 117 117 0 25-8 49-21 68z m-43 37c-16 8-34 13-53 13-9 0-17-1-26-3l-41 44 120 113z m-361 205l338 0c8 0 15-7 21-12l-186-170c-3-4-9-4-13-1l-181 172c6 4 13 11 21 11z m-23-266l0 228 121-113-121-124c0 0 0 5 0 9z m214-33l-191 0c-5 0-11 2-15 5l125 128 36-34c6-5 13-8 21-8 7 0 15 3 21 8l37 35 36-37c-39-17-66-54-70-97z m117-85c-42 0-75 33-75 74 0 42 33 75 75 75 41 0 74-33 74-75 0-41-33-74-74-74z"/>
<glyph glyph-name="oc-notification" unicode="&#120;" d="M457 185l-23 23c-19 17-32 45-32 71l0 82c0 36-16 73-42 99-25 28-62 43-102 43-39 0-74-14-102-42-29-28-43-63-43-102l0-80c0-26-14-55-34-70 0-1-1-1-2-2l-20-21c-28-23-42-54-42-93 0-12 9-22 21-22l160 0c0-2 0-4 0-7 0-30 27-55 60-55 33 0 60 25 60 55 0 3 0 5 0 7l160 0c12 0 21 10 21 22 0 48-21 73-40 92z m-397-71c4 20 14 32 25 41l22 21c29 24 48 64 48 103l0 80c0 28 10 51 31 72 20 20 44 30 72 30 28 0 53-11 71-30 19-19 30-45 30-70l0-82c0-38 18-78 46-102l22-22c12-12 21-23 25-41z"/>
<glyph glyph-name="oc-reply" unicode="&#121;" d="M382 269c-88 75-216 82-289 79l111 95c9 7 10 21 3 30-8 9-22 10-31 2l-158-135c-8-6-10-17-6-25 1-2 2-3 3-4 0 0 0-1 0-1 0 0 1 0 1-1 1-1 1-2 2-3l159-135c4-4 9-6 14-6 6 0 12 3 16 8 8 9 7 22-2 30l-120 102c64 3 189 0 269-69 49-42 75-104 75-184 0-12 9-22 21-22 12 0 21 10 21 22 0 93-30 166-89 217z"/>
<glyph glyph-name="oc-upload" unicode="&#122;" d="M395 150l-44 0c-12 0-21 10-21 21 0 12 9 22 21 22l44 0c37 0 68 35 68 78 0 34-20 65-48 75-8 3-13 10-14 19-4 58-48 104-99 104-34 0-65-19-83-52-3-5-8-9-14-10-5-2-11-1-16 2-16 10-29 6-36 2-15-8-25-23-26-42 0-10-8-19-18-20-34-5-60-38-60-78 0-43 31-78 68-78l42 0c11 0 21-10 21-22 0-11-10-21-21-21l-42 0c-61 0-110 54-110 121 0 55 33 102 80 117 6 27 22 49 46 61 19 10 40 11 59 5 27 37 67 58 110 58 70 0 129-57 140-131 38-20 63-62 63-110 0-67-49-121-110-121z m-69 102l-53 70c-1 2-2 3-4 4 0 0 0 0 0 0 0 0-1 0-1 1-1 1-3 2-6 2 0 1-1 1-2 1-1 0-3 0-4 0-1 0-3 0-4 0-1 0-2 0-2-1-3 0-5-1-6-2 0-1-1-1-1-1 0 0 0 0 0 0-2-1-3-2-4-4l-53-70c-7-10-6-23 4-30 4-3 8-5 13-5 6 0 13 3 17 9l14 19 0-213c0-12 9-21 21-21 12 0 21 9 21 21l0 215 16-21c4-6 11-9 17-9 5 0 9 2 13 5 10 7 11 20 4 30z"/>
<glyph glyph-name="oc-support" unicode="&#65;" d="M256 494c-131 0-238-107-238-238 0-131 107-238 238-238 131 0 238 107 238 238 0 131-107 238-238 238z m-80-135l-46 45c5 5 11 10 17 14l34-55c-2-2-4-3-5-4z m-16-15c-2-2-4-4-6-6l-55 34c5 6 10 12 15 18z m-4-174l-44-45c-6 6-10 12-15 18l55 33c1-2 3-4 4-6z m16-15c2-2 4-3 7-5l-34-54c-6 4-12 9-18 14z m-5 100c0 49 40 88 88 88 49 0 89-39 89-88 0-48-40-88-89-88-48 0-88 40-88 88z m188 85l46 46c4-5 9-10 13-16l-56-34c-1 1-2 3-3 4z m-16 15c-1 2-3 3-5 5l34 55c6-4 12-9 17-13z m4-196l46-46c-6-5-11-9-17-14l-34 55c2 2 3 3 5 5z m15 15c1 2 3 4 5 7l54-34c-4-7-9-13-14-18z m15 25c8 17 13 36 13 56 0 23-6 45-16 63l55 34c17-28 26-61 26-96 0-33-8-64-23-91z m-23 228l-34-56c-18 10-39 15-61 15-20 0-39-5-56-13l-34 55c27 15 58 23 91 23 34 0 66-9 94-24z m-262-73l54-34c-11-19-17-41-17-65 0-22 5-42 15-61l-54-33c-16 28-25 60-25 95 0 36 10 69 27 98z m75-270l34 55c18-9 37-14 58-14 24 0 46 6 65 17l34-54c-29-17-62-27-98-27-33 0-65 8-93 23z"/>
<glyph glyph-name="oc-search" unicode="&#66;" d="M498 46l-100 97c0 0 0 0-1 0 32 38 51 87 51 140 0 120-98 218-219 218-120 0-218-98-218-218 0-121 98-219 218-219 53 0 101 19 138 49 1 0 1-1 1-1l100-97c4-4 9-6 15-6 5 0 11 3 15 7 8 8 8 22 0 30z m-269 61c-97 0-176 78-176 176 0 97 79 176 176 176 98 0 176-79 176-176 0-98-78-176-176-176z"/>
<glyph glyph-name="oc-sad" unicode="&#67;" d="M256 18c-131 0-238 107-238 238 0 131 107 238 238 238 131 0 238-107 238-238 0-131-107-238-238-238z m0 433c-108 0-195-87-195-195 0-108 87-195 195-195 108 0 195 87 195 195 0 108-87 195-195 195z m-48-142c0-18-14-32-32-32-18 0-32 14-32 32 0 18 14 32 32 32 18 0 32-14 32-32z m160 0c0-18-14-32-32-32-18 0-32 14-32 32 0 18 14 32 32 32 18 0 32-14 32-32z m-18-173c-6 0-12 3-16 7 0 1-6 7-14 14 0 1-30 28-64 28-34 0-65-27-65-28-7-6-12-12-12-13-8-9-21-10-30-2-9 7-11 20-3 30 0 0 7 8 16 17 2 1 42 38 94 38 51 0 91-37 93-38 9-9 17-17 17-17 8-9 7-23-2-30-4-4-9-6-14-6z"/>
<glyph glyph-name="oc-rocket" unicode="&#68;" d="M39 29c-2 0-5 1-7 3-4 4-4 11 0 15l79 79c4 4 11 4 15 0 4-4 4-11 0-15l-79-79c-2-2-5-3-8-3z m3 59c-3 0-5 1-7 3-4 5-4 11 0 15l48 49c4 4 11 4 15 0 4-5 4-11 0-16l-48-48c-2-2-5-3-8-3z m57-56c-3 0-5 1-8 3-4 4-4 11 0 15l48 48c5 4 11 4 16 0 4-4 4-11 0-15l-48-48c-3-2-5-3-8-3z m401 446c0 6-2 12-7 17-4 4-10 6-16 6-106-5-200-51-274-132-57 12-164-4-189-79-3-7-2-16 4-22 5-6 13-8 21-5 9 1 57-3 79-20-5-10-10-20-14-30-4-8-2-17 4-23l85-85c4-4 9-6 15-6 2 0 5 1 8 2 11 4 22 9 32 14 17-22 22-68 22-76-3-8-1-16 5-22 4-4 10-6 15-6 2 0 5 1 7 1 74 27 88 133 76 190 77 74 121 169 127 276z m-427-175c25 21 66 28 98 27-12-15-23-32-33-50-19 13-44 20-65 23z m236-231c-4 21-11 45-24 64 17 10 34 21 49 33 1-32-5-72-25-97z m-97 74l-63 63c50 107 141 229 306 247-15-135-102-247-243-310z m142 165c-17 0-34 11-40 28-8 22 3 46 25 55 22 8 46-3 55-25 8-22-3-47-25-55-5-2-10-3-15-3z m0 64c-3 0-5 0-8-1-11-4-16-17-12-28 2-5 6-9 11-12 5-2 11-2 16 0 11 4 17 16 13 27-2 6-6 10-11 12-3 1-6 2-9 2z"/>
</font>
</defs>
</svg>
